<?xml version="1.0" encoding="UTF-8"?><svg xmlns="http://www.w3.org/2000/svg" viewBox="0 0 560.849283854 307.888888889"><g id="a"><rect id="b" x="27" y="1.888888889" width="432" height="9" fill="none"/></g><g id="c"><g id="d"><g id="e"><g><line x1="216" y1="1.888888889" x2="216" y2="7.888888889" fill="none" stroke="#929497" stroke-miterlimit="10" stroke-width="2"/><line x1="216" y1="20.707065158" x2="216" y2="142.479800754" fill="none" stroke="#929497" stroke-dasharray="0 0 12.818181992 12.818181992" stroke-miterlimit="10" stroke-width="2"/><line x1="216" y1="148.888888889" x2="216" y2="154.888888889" fill="none" stroke="#929497" stroke-miterlimit="10" stroke-width="2"/></g></g><g><path d="M176.333328247,68.555560642c28.57723999,33.951370239,87.247146606,53.158889771,109.67616272,59.508224487" fill="none" stroke="#3975bb" stroke-miterlimit="10" stroke-width="1.5"/><polygon points="283.215484619 130.415790134 295 130.44444614 284.809143066 124.526538425 283.215484619 130.415790134" fill="#3975bb"/></g><g><line x1="180" y1="60.222217136" x2="270.531005859" y2="60.222217136" fill="none" stroke="#3975bb" stroke-miterlimit="10" stroke-width="1.5"/><polygon points="268.450469971 63.272754245 279.833343506 60.222217136 268.450469971 57.171695285 268.450469971 63.272754245" fill="#3975bb"/></g><text transform="translate(352.56640625 38.932834201)" fill="#231f20" font-family="MyriadPro-Regular, &apos;Myriad Pro&apos;" font-size="12"><tspan x="0" y="0" letter-spacing="-.010986328em">P</tspan><tspan x="6.251953125" y="0">: ^2.0.0</tspan></text></g><g id="f"><g><line x1="116.833328247" y1="60.222217136" x2="144.419876099" y2="60.222217136" fill="none" stroke="#3975bb" stroke-miterlimit="10" stroke-width="1.5"/><polygon points="142.339355469 63.272754245 153.722229004 60.222217136 142.339355469 57.171695285 142.339355469 63.272754245" fill="#3975bb"/></g><g><line x1="351" y1="60.222217136" x2="378.586547852" y2="60.222217136" fill="none" stroke="#3975bb" stroke-miterlimit="10" stroke-width="1.5"/><polygon points="376.50604248 63.272754245 387.888885498 60.222217136 376.50604248 57.171695285 376.50604248 63.272754245" fill="#3975bb"/></g><g><line x1="53.111114502" y1="60.222217136" x2="80.697662354" y2="60.222217136" fill="none" stroke="#3975bb" stroke-miterlimit="10" stroke-width="1.5"/><polygon points="78.617141724 63.272754245 90 60.222217136 78.617141724 57.171695285 78.617141724 63.272754245" fill="#3975bb"/></g><g><g><circle cx="103.5" cy="60.388888889" r="12.75" fill="#fff"/><path d="M103.5,48.388888889c6.616821289,0,12,5.383178711,12,12s-5.383178711,12-12,12-12-5.383178711-12-12,5.383178711-12,12-12m0-1.5c-7.455841064,0-13.5,6.044158936-13.5,13.5s6.044158936,13.5,13.5,13.5,13.5-6.044158936,13.5-13.5-6.044158936-13.5-13.5-13.5h0Z" fill="#231f20"/></g><text transform="translate(99.875967026 64.40890842)" fill="#231f20" font-family="MyriadPro-Bold, &apos;Myriad Pro&apos;" font-size="12" font-weight="700"><tspan x="0" y="0">B</tspan></text></g><g><g><circle cx="40.5" cy="60.388888889" r="12.75" fill="#fff"/><path d="M40.5,48.388888889c6.616821289,0,12,5.383178711,12,12s-5.383178711,12-12,12-12-5.383178711-12-12,5.383178711-12,12-12m0-1.5c-7.455841064,0-13.5,6.044158936-13.5,13.5s6.044158936,13.5,13.5,13.5,13.5-6.044158936,13.5-13.5-6.044158936-13.5-13.5-13.5h0Z" fill="#231f20"/></g><text transform="translate(36.563964844 64.40890842)" fill="#231f20" font-family="MyriadPro-Bold, &apos;Myriad Pro&apos;" font-size="12" font-weight="700"><tspan x="0" y="0">A</tspan></text></g><g><g><circle cx="166.5" cy="60.388888889" r="12.75" fill="#fff"/><path d="M166.5,48.388888889c6.616821289,0,12,5.383178711,12,12s-5.383178711,12-12,12-12-5.383178711-12-12,5.383178711-12,12-12m0-1.5c-7.455841064,0-13.5,6.044158936-13.5,13.5s6.044158936,13.5,13.5,13.5,13.5-6.044158936,13.5-13.5-6.044158936-13.5-13.5-13.5h0Z" fill="#231f20"/></g><text transform="translate(162.930175781 64.40890842)" fill="#231f20" font-family="MyriadPro-Bold, &apos;Myriad Pro&apos;" font-size="12" font-weight="700"><tspan x="0" y="0">C</tspan></text></g><g><g><rect x="270.75" y="110.638888889" width="70.5" height="25.5" fill="#fff"/><path d="M340.5,111.388888889v24h-69v-24h69m1.5-1.5h-72v27h72v-27h0Z" fill="#231f20"/></g><text transform="translate(284.784179688 127.40890842)" fill="#231f20" font-family="MyriadPro-Bold, &apos;Myriad Pro&apos;" font-size="12" font-weight="700"><tspan x="0" y="0">P@1.2.3</tspan></text></g><g><g><rect x="387.75" y="47.638888889" width="70.5" height="25.5" fill="#fff"/><path d="M457.5,48.388888889v24h-69v-24h69m1.5-1.5h-72v27h72v-27h0Z" fill="#231f20"/></g><text transform="translate(401.784179688 64.40890842)" fill="#cb2026" font-family="MyriadPro-Bold, &apos;Myriad Pro&apos;" font-size="12" font-weight="700"><tspan x="0" y="0">P@2.0.3</tspan></text></g><g><g><rect x="279.75" y="47.638888889" width="70.5" height="25.5" fill="#fff"/><path d="M349.5,48.388888889v24h-69v-24h69m1.5-1.5h-72v27h72v-27h0Z" fill="#231f20"/></g><text transform="translate(293.712402344 64.40890842)" fill="#231f20" font-family="MyriadPro-Bold, &apos;Myriad Pro&apos;" font-size="12" font-weight="700"><tspan x="0" y="0">R@3.0.0</tspan></text></g><text transform="translate(150.06640625 100.888888889)" fill="#231f20" font-family="MyriadPro-Regular, &apos;Myriad Pro&apos;" font-size="12"><tspan x="0" y="0" letter-spacing="-.010986328em">P</tspan><tspan x="6.251953125" y="0" letter-spacing=".00008138em">: ~1.0.0</tspan></text><text transform="translate(225.541015625 46.888888889)" fill="#231f20" font-family="MyriadPro-Regular, &apos;Myriad Pro&apos;" font-size="12"><tspan x="0" y="0">R: 3.0.0</tspan></text></g></g></svg>