<?xml version="1.0" encoding="UTF-8"?><svg xmlns="http://www.w3.org/2000/svg" viewBox="0 0 560.849283854 307.888888889"><g id="a"><rect id="b" x="27" y="1.888888889" width="432" height="9" fill="none"/></g><g id="c"><g id="d"><g id="e"><g><line x1="216" y1="1.888888889" x2="216" y2="7.888888889" fill="none" stroke="#929497" stroke-miterlimit="10" stroke-width="2"/><line x1="216" y1="19.555560642" x2="216" y2="107.055560642" fill="none" stroke="#929497" stroke-dasharray="0 0 11.666666985 11.666666985" stroke-miterlimit="10" stroke-width="2"/><line x1="216" y1="112.888888889" x2="216" y2="118.888888889" fill="none" stroke="#929497" stroke-miterlimit="10" stroke-width="2"/></g></g><g><line x1="180" y1="60.222217136" x2="270.531005859" y2="60.222217136" fill="none" stroke="#3975bb" stroke-miterlimit="10" stroke-width="1.5"/><polygon points="268.450469971 63.272754245 279.833343506 60.222217136 268.450469971 57.171695285 268.450469971 63.272754245" fill="#3975bb"/></g><text transform="translate(345.40234375 29.932834201)" fill="#231f20" font-family="MyriadPro-Regular, &apos;Myriad Pro&apos;" font-size="12"><tspan x="0" y="0">(optional peer)</tspan><tspan x="16.1640625" y="14.399902344" letter-spacing="-.010986328em">P</tspan><tspan x="22.416015625" y="14.399902344">: ^2.0.0</tspan></text></g><g id="f"><g><line x1="116.833328247" y1="60.222217136" x2="144.419876099" y2="60.222217136" fill="none" stroke="#3975bb" stroke-miterlimit="10" stroke-width="1.5"/><polygon points="142.339355469 63.272754245 153.722229004 60.222217136 142.339355469 57.171695285 142.339355469 63.272754245" fill="#3975bb"/></g><g><line x1="53.111114502" y1="60.222217136" x2="80.697662354" y2="60.222217136" fill="none" stroke="#3975bb" stroke-miterlimit="10" stroke-width="1.5"/><polygon points="78.617141724 63.272754245 90 60.222217136 78.617141724 57.171695285 78.617141724 63.272754245" fill="#3975bb"/></g><g><g><circle cx="103.5" cy="60.388888889" r="12.75" fill="#fff"/><path d="M103.5,48.388888889c6.616821289,0,12,5.383178711,12,12s-5.383178711,12-12,12-12-5.383178711-12-12,5.383178711-12,12-12m0-1.5c-7.455841064,0-13.5,6.044158936-13.5,13.5s6.044158936,13.5,13.5,13.5,13.5-6.044158936,13.5-13.5-6.044158936-13.5-13.5-13.5h0Z" fill="#231f20"/></g><text transform="translate(99.875967026 64.40890842)" fill="#231f20" font-family="MyriadPro-Bold, &apos;Myriad Pro&apos;" font-size="12" font-weight="700"><tspan x="0" y="0">B</tspan></text></g><g><g><circle cx="40.5" cy="60.388888889" r="12.75" fill="#fff"/><path d="M40.5,48.388888889c6.616821289,0,12,5.383178711,12,12s-5.383178711,12-12,12-12-5.383178711-12-12,5.383178711-12,12-12m0-1.5c-7.455841064,0-13.5,6.044158936-13.5,13.5s6.044158936,13.5,13.5,13.5,13.5-6.044158936,13.5-13.5-6.044158936-13.5-13.5-13.5h0Z" fill="#231f20"/></g><text transform="translate(36.563964844 64.40890842)" fill="#231f20" font-family="MyriadPro-Bold, &apos;Myriad Pro&apos;" font-size="12" font-weight="700"><tspan x="0" y="0">A</tspan></text></g><g><g><circle cx="166.5" cy="60.388888889" r="12.75" fill="#fff"/><path d="M166.5,48.388888889c6.616821289,0,12,5.383178711,12,12s-5.383178711,12-12,12-12-5.383178711-12-12,5.383178711-12,12-12m0-1.5c-7.455841064,0-13.5,6.044158936-13.5,13.5s6.044158936,13.5,13.5,13.5,13.5-6.044158936,13.5-13.5-6.044158936-13.5-13.5-13.5h0Z" fill="#231f20"/></g><text transform="translate(162.930175781 64.40890842)" fill="#231f20" font-family="MyriadPro-Bold, &apos;Myriad Pro&apos;" font-size="12" font-weight="700"><tspan x="0" y="0">C</tspan></text></g><g><g><rect x="279.75" y="47.638888889" width="70.5" height="25.5" fill="#fff"/><path d="M349.5,48.388888889v24h-69v-24h69m1.5-1.5h-72v27h72v-27h0Z" fill="#231f20"/></g><text transform="translate(292.968261719 64.40890842)" fill="#231f20" font-family="MyriadPro-Bold, &apos;Myriad Pro&apos;" font-size="12" font-weight="700"><tspan x="0" y="0">Q@3.0.0</tspan></text></g><g><line x1="351" y1="59.722217136" x2="400.143829346" y2="59.722217136" fill="none" stroke="#549445" stroke-miterlimit="10" stroke-width="1.5"/><g><circle cx="399.888259888" cy="59.722220951" r="4.511737823" transform="translate(15.508881936 185.140951119) rotate(-26.56511706)" fill="#fff"/><path d="M399.888244629,64.833941989c-2.818328857,0-5.111694336-2.293365479-5.111694336-5.111724854,0-2.818344116,2.293365479-5.111724854,5.111694336-5.111724854,2.81842041,0,5.111755371,2.293380737,5.111755371,5.111724854,0,2.818359375-2.293334961,5.111724854-5.111755371,5.111724854-2.818328857,0,2.81842041,0,0,0Zm0-9.0234375c-2.15737915,0-3.911682129,1.754302979-3.911682129,3.911712646,0,2.157424927,1.754302979,3.911727905,3.911682129,3.911727905,2.157470703,0,3.911743164-1.754302979,3.911743164-3.911727905,0-2.157409668-1.754272461-3.911712646-3.911743164-3.911712646-2.15737915,0,2.157470703,0,0,0Z" fill="#549445"/></g></g><text transform="translate(224.634765625 46.888888889)" fill="#231f20" font-family="MyriadPro-Regular, &apos;Myriad Pro&apos;" font-size="12"><tspan x="0" y="0">Q: 3.0.0</tspan></text></g></g></svg>