<?xml version="1.0" encoding="UTF-8"?><svg xmlns="http://www.w3.org/2000/svg" viewBox="0 0 560.849283854 307.888888889"><g id="a"><rect id="b" x="27" y="1.888888889" width="432" height="9" fill="none"/></g><g id="c"><g id="d"><g id="e"><g><line x1="126" y1="1.888888889" x2="126" y2="7.888888889" fill="none" stroke="#929497" stroke-miterlimit="10" stroke-width="2"/><line x1="126" y1="20.119662815" x2="126" y2="160.773501926" fill="none" stroke="#929497" stroke-dasharray="0 0 12.230769157 12.230769157" stroke-miterlimit="10" stroke-width="2"/><line x1="126" y1="166.888888889" x2="126" y2="172.888888889" fill="none" stroke="#929497" stroke-miterlimit="10" stroke-width="2"/></g></g><g><path d="M43,54.333331638c3.419021606,14.256942749,10.50920105,23.970443726,15.897850037,29.638458252" fill="none" stroke="#3975bb" stroke-miterlimit="10" stroke-width="1.5"/><polygon points="55.400161743 84.738788181 65.888885498 90.111117893 59.492370605 80.213641697 55.400161743 84.738788181" fill="#3975bb"/></g><g><path d="M89.222221375,97.000003391c22.82624054,0,44.218925476-11.058792114,109.788566589-41.630020142" fill="none" stroke="#3975bb" stroke-miterlimit="10" stroke-width="1.5"/><polygon points="198.418914795 59.021716648 207.444442749 51.44444614 195.839294434 53.49283176 198.418914795 59.021716648" fill="#3975bb"/></g><g><line x1="89.777778625" y1="149.888888889" x2="198.364334106" y2="149.888888889" fill="none" stroke="#3975bb" stroke-miterlimit="10" stroke-width="1.5"/><polygon points="196.283798218 152.939425998 207.666671753 149.888888889 196.283798218 146.83835178 196.283798218 152.939425998" fill="#3975bb"/></g><g><line x1="54" y1="42.222217136" x2="198.586547852" y2="42.222217136" fill="none" stroke="#3975bb" stroke-miterlimit="10" stroke-width="1.5"/><polygon points="196.506027222 45.272754245 207.888885498 42.222217136 196.506027222 39.171695285 196.506027222 45.272754245" fill="#3975bb"/></g></g><g id="f"><g><g><circle cx="76.5" cy="96.388888889" r="12.75" fill="#fff"/><path d="M76.5,84.388888889c6.616821289,0,12,5.383178711,12,12s-5.383178711,12-12,12-12-5.383178711-12-12,5.383178711-12,12-12m0-1.5c-7.455841064,0-13.5,6.044158936-13.5,13.5s6.044158936,13.5,13.5,13.5,13.5-6.044158936,13.5-13.5-6.044158936-13.5-13.5-13.5h0Z" fill="#231f20"/></g><text transform="translate(72.875968933 100.40890842)" fill="#231f20" font-family="MyriadPro-Bold, &apos;Myriad Pro&apos;" font-size="12" font-weight="700"><tspan x="0" y="0">B</tspan></text></g><g><g><circle cx="76.5" cy="150.388888889" r="12.75" fill="#fff"/><path d="M76.5,138.388888889c6.616821289,0,12,5.383178711,12,12s-5.383178711,12-12,12-12-5.383178711-12-12,5.383178711-12,12-12m0-1.5c-7.455841064,0-13.5,6.044158936-13.5,13.5s6.044158936,13.5,13.5,13.5,13.5-6.044158936,13.5-13.5-6.044158936-13.5-13.5-13.5h0Z" fill="#231f20"/></g><text transform="translate(72.930168152 154.40890842)" fill="#231f20" font-family="MyriadPro-Bold, &apos;Myriad Pro&apos;" font-size="12" font-weight="700"><tspan x="0" y="0">C</tspan></text></g><g><g><circle cx="40.5" cy="42.388888889" r="12.75" fill="#fff"/><path d="M40.5,30.388888889c6.616821289,0,12,5.383178711,12,12s-5.383178711,12-12,12-12-5.383178711-12-12,5.383178711-12,12-12m0-1.5c-7.455841064,0-13.5,6.044158936-13.5,13.5s6.044158936,13.5,13.5,13.5,13.5-6.044158936,13.5-13.5-6.044158936-13.5-13.5-13.5h0Z" fill="#231f20"/></g><text transform="translate(36.563964844 46.40890842)" fill="#231f20" font-family="MyriadPro-Bold, &apos;Myriad Pro&apos;" font-size="12" font-weight="700"><tspan x="0" y="0">A</tspan></text></g><g><g><rect x="207.75" y="137.638888889" width="70.5" height="25.5" fill="#fff"/><path d="M277.5,138.388888889v24h-69v-24h69m1.5-1.5h-72v27h72v-27h0Z" fill="#231f20"/></g><text transform="translate(221.784179688 154.40890842)" fill="#231f20" font-family="MyriadPro-Bold, &apos;Myriad Pro&apos;" font-size="12" font-weight="700"><tspan x="0" y="0">P@1.2.3</tspan></text></g><g><g><rect x="207.75" y="29.638888889" width="70.5" height="25.5" fill="#fff"/><path d="M277.5,30.388888889v24h-69V30.388888889h69m1.5-1.5h-72v27h72V28.888888889h0Z" fill="#231f20"/></g><text transform="translate(221.784179688 46.40890842)" fill="#231f20" font-family="MyriadPro-Bold, &apos;Myriad Pro&apos;" font-size="12" font-weight="700"><tspan x="0" y="0">P@2.0.3</tspan></text></g><text transform="translate(133.17767334 36.111272388)" fill="#231f20" font-family="MyriadPro-Regular, &apos;Myriad Pro&apos;" font-size="12"><tspan x="0" y="0" letter-spacing="-.010986328em">P</tspan><tspan x="6.251953125" y="0" letter-spacing=".00008138em">: ^2.0.0</tspan></text><text transform="translate(150.122131348 93.000003391)" fill="#231f20" font-family="MyriadPro-Regular, &apos;Myriad Pro&apos;" font-size="12"><tspan x="0" y="0" letter-spacing="-.010986328em">P</tspan><tspan x="6.251953125" y="0" letter-spacing=".00008138em">: ~2.0.1</tspan></text><text transform="translate(133.955291748 145.44443851)" fill="#231f20" font-family="MyriadPro-Regular, &apos;Myriad Pro&apos;" font-size="12"><tspan x="0" y="0" letter-spacing="-.010986328em">P</tspan><tspan x="6.251953125" y="0" letter-spacing=".00008138em">: ^1.0.0</tspan></text></g></g></svg>