<?xml version="1.0" encoding="UTF-8"?><svg id="a" xmlns="http://www.w3.org/2000/svg" viewBox="0 0 560.849283854 307.888888889"><g id="b"><line id="c" x1="153.111111111" x2="153.111111111" y2="306" fill="#fff" stroke="#929497" stroke-dasharray="0 12" stroke-miterlimit="10" stroke-width="2"/><g><line x1="26.166667938" y1="42.388888889" x2="63.03099823" y2="42.388888889" fill="none" stroke="#3975bb" stroke-miterlimit="10" stroke-width="1.5"/><polygon points="60.950469971 45.439425998 72.333335876 42.388888889 60.950469971 39.33835178 60.950469971 45.439425998" fill="#3975bb"/></g><g><line x1="98.5" y1="42.388888889" x2="171.364334106" y2="42.388888889" fill="none" stroke="#3975bb" stroke-miterlimit="10" stroke-width="1.5"/><polygon points="169.283798218 45.439425998 180.666671753 42.388888889 169.283798218 39.33835178 169.283798218 45.439425998" fill="#3975bb"/></g><g><line x1="224" y1="42.388888889" x2="252.364318848" y2="42.388888889" fill="none" stroke="#3975bb" stroke-miterlimit="10" stroke-width="1.5"/><polygon points="250.283813477 45.439425998 261.666656494 42.388888889 250.283813477 39.33835178 250.283813477 45.439425998" fill="#3975bb"/></g><g><line x1="350.166656494" y1="42.388888889" x2="378.364318848" y2="42.388888889" fill="none" stroke="#3975bb" stroke-miterlimit="10" stroke-width="1.5"/><polygon points="376.283813477 45.439425998 387.666656494 42.388888889 376.283813477 39.33835178 376.283813477 45.439425998" fill="#3975bb"/></g><g><path d="M204.666671753,54.888888889c12.412216187,24.048675537,127.083908081,30.331939697,173.658981323,37.13583374" fill="none" stroke="#3975bb" stroke-miterlimit="10" stroke-width="1.5"/><polygon points="375.774810791 94.736896091 387.5 93.555560642 376.755432129 88.715152317 375.774810791 94.736896091" fill="#3975bb"/></g><g><path d="M496,47.888888889c.20111084,32.785812378-59.494720459,6.129776001-77.744262695,27.060287476" fill="none" stroke="#549445" stroke-miterlimit="10" stroke-width="1.5"/><polygon points="416.796020508 71.774188572 414 83.222217136 422.146148682 74.706607395 416.796020508 71.774188572" fill="#549445"/></g><g><path d="M521.333312988,38.222217136c-16.743896484,103.04750061-84.060150146,59.185317993-104.016387939,91.108810425" fill="none" stroke="#549445" stroke-miterlimit="10" stroke-width="1.5"/><polygon points="415.51675415 126.250476413 413.666656494 137.888888889 421.08883667 128.735385471 415.51675415 126.250476413" fill="#549445"/></g><g><line x1="476.333312988" y1="48.722217136" x2="496.143798828" y2="48.722217136" fill="none" stroke="#549445" stroke-miterlimit="10" stroke-width="1.5"/><g><path d="M495.888244629,53.233951145c2.491455078,0,4.511779785-2.020324707,4.511779785-4.511734009,0-2.491394043-2.020324707-4.51171875-4.511779785-4.51171875-2.491394043,0-4.511657715,2.020324707-4.511657715,4.51171875,0,2.491409302,2.020263672,4.511734009,4.511657715,4.511734009Z" fill="#fff"/><path d="M495.888244629,53.833941989c-2.81829834,0-5.111694336-2.293365479-5.111694336-5.111724854,0-2.818344116,2.293395996-5.111724854,5.111694336-5.111724854,2.81842041,0,5.111755371,2.293380737,5.111755371,5.111724854,0,2.818359375-2.293334961,5.111724854-5.111755371,5.111724854-2.81829834,0,2.81842041,0,0,0Zm0-9.0234375c-2.157409668,0-3.911682129,1.754302979-3.911682129,3.911712646,0,2.157424927,1.754272461,3.911727905,3.911682129,3.911727905,2.157470703,0,3.911743164-1.754302979,3.911743164-3.911727905,0-2.157409668-1.754272461-3.911712646-3.911743164-3.911712646-2.157409668,0,2.157470703,0,0,0Z" fill="#549445"/></g></g><g><line x1="476.333312988" y1="37.388888889" x2="522.143798828" y2="37.388888889" fill="none" stroke="#549445" stroke-miterlimit="10" stroke-width="1.5"/><g><path d="M521.888244629,41.900607639c2.491455078,0,4.511779785-2.020309448,4.511779785-4.51171875s-2.020324707-4.51171875-4.511779785-4.51171875c-2.491394043,0-4.511657715,2.020309448-4.511657715,4.51171875s2.020263672,4.51171875,4.511657715,4.51171875Z" fill="#fff"/><path d="M521.888244629,42.500613742c-2.81829834,0-5.111694336-2.293365479-5.111694336-5.111724854s2.293395996-5.111724854,5.111694336-5.111724854c2.81842041,0,5.111755371,2.293365479,5.111755371,5.111724854s-2.293334961,5.111724854-5.111755371,5.111724854c-2.81829834,0,2.81842041,0,0,0Zm0-9.023452759c-2.157409668,0-3.911682129,1.754302979-3.911682129,3.911727905s1.754272461,3.911727905,3.911682129,3.911727905c2.157470703,0,3.911743164-1.754302979,3.911743164-3.911727905s-1.754272461-3.911727905-3.911743164-3.911727905c-2.157409668,0,2.157470703,0,0,0Z" fill="#549445"/></g></g><g><line x1="124.833328247" y1="159.055545383" x2="227.697662354" y2="159.055545383" fill="none" stroke="#3975bb" stroke-miterlimit="10" stroke-width="1.5"/><polygon points="225.617126465 162.106082492 237 159.055545383 225.617126465 156.005008274 225.617126465 162.106082492" fill="#3975bb"/></g><g><path d="M23.333332062,49.888888889c64.41463089,79.128631592,225.266124725,.879135132,356.388683319,89.318344116" fill="none" stroke="#3975bb" stroke-miterlimit="10" stroke-width="1.5"/><polygon points="376.217926025 140.641070896 387.333343506 144.555545383 379.665100098 135.607181125 376.217926025 140.641070896" fill="#3975bb"/></g><g><path d="M24.833332062,116.055560642c184.451595306,19.849121094,267.808605194-3.687530518,354.31003952,32.116134644" fill="none" stroke="#3975bb" stroke-miterlimit="10" stroke-width="1.5"/><polygon points="376.007080078 150.177280002 387.666656494 151.888888889 378.425598145 144.576022678 376.007080078 150.177280002" fill="#3975bb"/></g><g><line x1="25.333332062" y1="222.388888889" x2="252.364318848" y2="222.388888889" fill="none" stroke="#3975bb" stroke-miterlimit="10" stroke-width="1.5"/><polygon points="250.283813477 225.439425998 261.666656494 222.388888889 250.283813477 219.33835178 250.283813477 225.439425998" fill="#3975bb"/></g><g><line x1="350.166656494" y1="222.388888889" x2="378.364318848" y2="222.388888889" fill="none" stroke="#3975bb" stroke-miterlimit="10" stroke-width="1.5"/><polygon points="376.283813477 225.439425998 387.666656494 222.388888889 376.283813477 219.33835178 376.283813477 225.439425998" fill="#3975bb"/></g><g><path d="M496,227.888888889c.20111084,32.785797119-59.494720459,6.129760742-77.744262695,27.060302734" fill="none" stroke="#549445" stroke-miterlimit="10" stroke-width="1.5"/><polygon points="416.796020508 251.774173313 414 263.222232395 422.146148682 254.706607395 416.796020508 251.774173313" fill="#549445"/></g><g><line x1="476.333312988" y1="228.722232395" x2="496.143798828" y2="228.722232395" fill="none" stroke="#549445" stroke-miterlimit="10" stroke-width="1.5"/><g><path d="M495.888244629,233.233951145c2.491455078,0,4.511779785-2.020324707,4.511779785-4.51171875,0-2.491424561-2.020324707-4.511749268-4.511779785-4.511749268-2.491394043,0-4.511657715,2.020324707-4.511657715,4.511749268,0,2.491394043,2.020263672,4.51171875,4.511657715,4.51171875Z" fill="#fff"/><path d="M495.888244629,233.833957248c-2.81829834,0-5.111694336-2.293365479-5.111694336-5.111724854s2.293395996-5.111724854,5.111694336-5.111724854c2.81842041,0,5.111755371,2.293365479,5.111755371,5.111724854s-2.293334961,5.111724854-5.111755371,5.111724854c-2.81829834,0,2.81842041,0,0,0Zm0-9.023468018c-2.157409668,0-3.911682129,1.754302979-3.911682129,3.911743164,0,2.157409668,1.754272461,3.911712646,3.911682129,3.911712646,2.157470703,0,3.911743164-1.754302979,3.911743164-3.911712646,0-2.157440186-1.754272461-3.911743164-3.911743164-3.911743164-2.157409668,0,2.157470703,0,0,0Z" fill="#549445"/></g></g><g><line x1="476.333312988" y1="217.388888889" x2="522.143798828" y2="217.388888889" fill="none" stroke="#549445" stroke-miterlimit="10" stroke-width="1.5"/><g><path d="M521.888244629,221.900607639c2.491455078,0,4.511779785-2.020324707,4.511779785-4.51171875s-2.020324707-4.51171875-4.511779785-4.51171875c-2.491394043,0-4.511657715,2.020324707-4.511657715,4.51171875s2.020263672,4.51171875,4.511657715,4.51171875Z" fill="#fff"/><path d="M521.888244629,222.500613742c-2.81829834,0-5.111694336-2.293365479-5.111694336-5.111724854s2.293395996-5.111724854,5.111694336-5.111724854c2.81842041,0,5.111755371,2.293365479,5.111755371,5.111724854s-2.293334961,5.111724854-5.111755371,5.111724854c-2.81829834,0,2.81842041,0,0,0Zm0-9.0234375c-2.157409668,0-3.911682129,1.754302979-3.911682129,3.911712646s1.754272461,3.911712646,3.911682129,3.911712646c2.157470703,0,3.911743164-1.754302979,3.911743164-3.911712646s-1.754272461-3.911712646-3.911743164-3.911712646c-2.157409668,0,2.157470703,0,0,0Z" fill="#549445"/></g></g><g><path d="M23.333332062,229.888888889c74.767208099,47.877258301,168.258022308,40.720916748,354.701366425,46.058807373" fill="none" stroke="#3975bb" stroke-miterlimit="10" stroke-width="1.5"/><polygon points="375.88470459 279.015811496 387.333343506 276.222232395 376.022003174 272.916263156 375.88470459 279.015811496" fill="#3975bb"/></g><rect id="d" x="101.483951475" y="119.115685799" width="4.687144884" height="7.021639473" transform="translate(-22.895696411 23.840676531) rotate(-11.807659332)" fill="#fff"/><rect id="e" x="92.567284808" y="83.615685799" width="4.687144884" height="7.021639473" transform="translate(-15.820117549 21.264908145) rotate(-11.807659332)" fill="#fff"/><rect id="f" x="51.706173697" y="70.643463576" width="4.687144884" height="7.021639473" transform="translate(63.153773484 -17.154804282) rotate(41.781537769)" fill="#fff"/><g><line x1="86.666664124" y1="54.555560642" x2="107.294235229" y2="136.865588718" fill="none" stroke="#3975bb" stroke-miterlimit="10" stroke-width="1.5"/><polygon points="103.829452515 135.589023166 109.555557251 145.888888889 109.747512817 134.105914646 103.829452515 135.589023166" fill="#3975bb"/></g><g><line x1="23.666667938" y1="105.888888889" x2="69.567222595" y2="57.941806369" fill="none" stroke="#3975bb" stroke-miterlimit="10" stroke-width="1.5"/><polygon points="70.332061768 61.55420261 76 51.222217136 65.924926758 57.335177951 70.332061768 61.55420261" fill="#3975bb"/></g><g><line x1="22" y1="214.333346897" x2="93.237686157" y2="169.509616428" fill="none" stroke="#3975bb" stroke-miterlimit="10" stroke-width="1.5"/><polygon points="93.101348877 173.199557834 101.111114502 164.555545383 89.852157593 168.03567844 93.101348877 173.199557834" fill="#3975bb"/></g></g><g id="g"><g><g><circle cx="13.5" cy="114.388888889" r="12.75" fill="#fff"/><path d="M13.5,102.388888889c6.616821289,0,12,5.383178711,12,12s-5.383178711,12-12,12-12-5.383178711-12-12,5.383178711-12,12-12m0-1.5c-7.455841064,0-13.5,6.044158936-13.5,13.5s6.044158936,13.5,13.5,13.5,13.5-6.044158936,13.5-13.5-6.044158936-13.5-13.5-13.5h0Z" fill="#231f20"/></g><text transform="translate(9.875965118 118.408910327)" fill="#231f20" font-family="MyriadPro-Bold, &apos;Myriad Pro&apos;" font-size="12" font-weight="700"><tspan x="0" y="0">B</tspan></text></g><g><g><circle cx="13.5" cy="42.388888889" r="12.75" fill="#fff"/><path d="M13.5,30.388888889c6.616821289,0,12,5.383178711,12,12s-5.383178711,12-12,12S1.5,49.005710178,1.5,42.388888889s5.383178711-12,12-12m0-1.5c-7.455841064,0-13.5,6.044158936-13.5,13.5s6.044158936,13.5,13.5,13.5,13.5-6.044158936,13.5-13.5-6.044158936-13.5-13.5-13.5h0Z" fill="#231f20"/></g><text transform="translate(9.563964844 46.40890842)" fill="#231f20" font-family="MyriadPro-Bold, &apos;Myriad Pro&apos;" font-size="12" font-weight="700"><tspan x="0" y="0">A</tspan></text></g><g><g><circle cx="85.5" cy="42.388888889" r="12.75" fill="#fff"/><path d="M85.5,30.388888889c6.616821289,0,12,5.383178711,12,12s-5.383178711,12-12,12-12-5.383178711-12-12,5.383178711-12,12-12m0-1.5c-7.455841064,0-13.5,6.044158936-13.5,13.5s6.044158936,13.5,13.5,13.5,13.5-6.044158936,13.5-13.5-6.044158936-13.5-13.5-13.5h0Z" fill="#231f20"/></g><text transform="translate(81.324226379 46.40890842)" fill="#231f20" font-family="MyriadPro-Bold, &apos;Myriad Pro&apos;" font-size="12" font-weight="700"><tspan x="0" y="0">D</tspan></text></g><g><g><circle cx="112.5" cy="159.388888889" r="12.75" fill="#fff"/><path d="M112.5,147.388888889c6.616821289,0,12,5.383178711,12,12s-5.383178711,12-12,12-12-5.383178711-12-12,5.383178711-12,12-12m0-1.5c-7.455841064,0-13.5,6.044158936-13.5,13.5s6.044158936,13.5,13.5,13.5,13.5-6.044158936,13.5-13.5-6.044158936-13.5-13.5-13.5h0Z" fill="#231f20"/></g><text transform="translate(109.295906067 163.40890842)" fill="#231f20" font-family="MyriadPro-Bold, &apos;Myriad Pro&apos;" font-size="12" font-weight="700"><tspan x="0" y="0">E</tspan></text></g><g><g><rect x="387.75" y="83.638888889" width="43.5" height="25.5" fill="#fff"/><path d="M430.5,84.388888889v24h-42v-24h42m1.5-1.5h-45v27h45v-27h0Z" fill="#231f20"/></g><text transform="translate(396.474121094 100.40890842)" fill="#231f20" font-family="MyriadPro-Bold, &apos;Myriad Pro&apos;" font-size="12" font-weight="700"><tspan x="0" y="0">M@1</tspan></text></g><g><g><rect x="387.75" y="137.638888889" width="43.5" height="25.5" fill="#fff"/><path d="M430.5,138.388888889v24h-42v-24h42m1.5-1.5h-45v27h45v-27h0Z" fill="#231f20"/></g><text transform="translate(397.41015625 154.40890842)" fill="#231f20" font-family="MyriadPro-Bold, &apos;Myriad Pro&apos;" font-size="12" font-weight="700"><tspan x="0" y="0">N@2</tspan></text></g><g><g><rect x="236.75" y="146.638888889" width="43.5" height="25.5" fill="#fff"/><path d="M279.5,147.388888889v24h-42v-24h42m1.5-1.5h-45v27h45v-27h0Z" fill="#231f20"/></g><text transform="translate(246.41015625 163.40890842)" fill="#231f20" font-family="MyriadPro-Bold, &apos;Myriad Pro&apos;" font-size="12" font-weight="700"><tspan x="0" y="0">N@3</tspan></text></g><g><g><rect x="180.75" y="29.638888889" width="43.5" height="25.5" fill="#fff"/><path d="M223.5,30.388888889v24h-42V30.388888889h42m1.5-1.5h-45v27h45V28.888888889h0Z" fill="#231f20"/></g><text transform="translate(192.083984375 46.40890842)" fill="#231f20" font-family="MyriadPro-Bold, &apos;Myriad Pro&apos;" font-size="12" font-weight="700"><tspan x="0" y="0">J@1</tspan></text></g><g><g><rect x="261.75" y="29.638888889" width="88.5" height="25.5" fill="#fff"/><path d="M349.5,30.388888889v24h-87V30.388888889h87m1.5-1.5h-90v27h90V28.888888889h0Z" fill="#231f20"/></g><text transform="translate(272.490234375 46.40890842)" fill="#231f20" font-family="MyriadPro-Bold, &apos;Myriad Pro&apos;" font-size="12" font-weight="700"><tspan x="0" y="0">K@1_M1_N2</tspan></text></g><g><g><rect x="387.75" y="29.638888889" width="88.5" height="25.5" fill="#fff"/><path d="M475.5,30.388888889v24h-87V30.388888889h87m1.5-1.5h-90v27h90V28.888888889h0Z" fill="#231f20"/></g><text transform="translate(399.108398438 46.40890842)" fill="#231f20" font-family="MyriadPro-Bold, &apos;Myriad Pro&apos;" font-size="12" font-weight="700"><tspan x="0" y="0">L@1_M1_N2</tspan></text></g><text/><g><g><circle cx="13.5" cy="222.388888889" r="12.75" fill="#fff"/><path d="M13.5,210.388888889c6.616821289,0,12,5.383178711,12,12s-5.383178711,12-12,12-12-5.383178711-12-12,5.383178711-12,12-12m0-1.5c-7.455841064,0-13.5,6.044158936-13.5,13.5s6.044158936,13.5,13.5,13.5,13.5-6.044158936,13.5-13.5-6.044158936-13.5-13.5-13.5h0Z" fill="#231f20"/></g><text transform="translate(9.930175781 226.40890842)" fill="#231f20" font-family="MyriadPro-Bold, &apos;Myriad Pro&apos;" font-size="12" font-weight="700"><tspan x="0" y="0">C</tspan></text></g><g><g><rect x="387.75" y="263.638888889" width="43.5" height="25.5" fill="#fff"/><path d="M430.5,264.388888889v24h-42v-24h42m1.5-1.5h-45v27h45v-27h0Z" fill="#231f20"/></g><text transform="translate(396.474121094 280.40890842)" fill="#231f20" font-family="MyriadPro-Bold, &apos;Myriad Pro&apos;" font-size="12" font-weight="700"><tspan x="0" y="0">M@1</tspan></text></g><g><g><rect x="261.75" y="209.638888889" width="88.5" height="25.5" fill="#fff"/><path d="M349.5,210.388888889v24h-87v-24h87m1.5-1.5h-90v27h90v-27h0Z" fill="#231f20"/></g><text transform="translate(282.959960938 226.40890842)" fill="#231f20" font-family="MyriadPro-Bold, &apos;Myriad Pro&apos;" font-size="12" font-weight="700"><tspan x="0" y="0">K@1_M1</tspan></text></g><g><g><rect x="387.75" y="209.638888889" width="88.5" height="25.5" fill="#fff"/><path d="M475.5,210.388888889v24h-87v-24h87m1.5-1.5h-90v27h90v-27h0Z" fill="#231f20"/></g><text transform="translate(409.578125 226.40890842)" fill="#231f20" font-family="MyriadPro-Bold, &apos;Myriad Pro&apos;" font-size="12" font-weight="700"><tspan x="0" y="0">L@1_M1</tspan></text></g><text/><text transform="translate(456.88671875 76.655055576)" fill="#231f20" font-family="MyriadPro-Regular, &apos;Myriad Pro&apos;" font-size="12"><tspan x="0" y="0">(peer)</tspan><tspan x="-7.834960938" y="14.399902344">M: ^1.0.0</tspan></text><text transform="translate(456.88671875 259.988391452)" fill="#231f20" font-family="MyriadPro-Regular, &apos;Myriad Pro&apos;" font-size="12"><tspan x="0" y="0">(peer)</tspan><tspan x="-7.834960938" y="14.399902344">M: ^1.0.0</tspan></text><text transform="translate(465.251617432 10.877278858)" fill="#231f20" font-family="MyriadPro-Regular, &apos;Myriad Pro&apos;" font-size="12"><tspan x="0" y="0">(optional peer)</tspan><tspan x="15.342773438" y="14.399902344">N: ^2.0.0</tspan></text><text transform="translate(465.251617432 191.543948703)" fill="#231f20" font-family="MyriadPro-Regular, &apos;Myriad Pro&apos;" font-size="12"><tspan x="0" y="0">(optional peer)</tspan><tspan x="15.342773438" y="14.399902344">N: ^2.0.0</tspan></text><text transform="translate(221.213432312 20.055282169)" fill="#231f20" font-family="MyriadPro-Regular, &apos;Myriad Pro&apos;" font-size="12"><tspan x="0" y="0" letter-spacing=".021972656em">K</tspan><tspan x="6.767578125" y="0" letter-spacing=".00008138em">: ^1.0.0</tspan></text><text transform="translate(39.773986816 268.277774387)" fill="#231f20" font-family="MyriadPro-Regular, &apos;Myriad Pro&apos;" font-size="12"><tspan x="0" y="0">M: ^1.0.0</tspan></text><text transform="translate(159.245117188 153.222056919)" fill="#231f20" font-family="MyriadPro-Regular, &apos;Myriad Pro&apos;" font-size="12"><tspan x="0" y="0">N: ^3.0.0</tspan></text><text transform="translate(50.586486816 217.888827854)" fill="#231f20" font-family="MyriadPro-Regular, &apos;Myriad Pro&apos;" font-size="12"><tspan x="0" y="0" letter-spacing=".021972656em">K</tspan><tspan x="6.767578125" y="0" letter-spacing=".00008138em">: ^1.0.0</tspan></text><text transform="translate(102.639434814 35.388829046)" fill="#231f20" font-family="MyriadPro-Regular, &apos;Myriad Pro&apos;" font-size="12"><tspan x="0" y="0">J: ^1.0.0</tspan></text><text transform="translate(170.205818176 120.055507236)" fill="#231f20" font-family="MyriadPro-Regular, &apos;Myriad Pro&apos;" font-size="12"><tspan x="0" y="0">N: ^2.0.0 || ^3.0.0</tspan></text><text transform="translate(159.356307983 87.166610294)" fill="#231f20" font-family="MyriadPro-Regular, &apos;Myriad Pro&apos;" font-size="12"><tspan x="0" y="0">N: ^2.0.0</tspan></text><text transform="translate(349.320743561 20.055553012)" fill="#231f20" font-family="MyriadPro-Regular, &apos;Myriad Pro&apos;" font-size="12"><tspan x="0" y="0">L: ^1.0.0</tspan></text><text transform="translate(346.209632874 204.277774387)" fill="#231f20" font-family="MyriadPro-Regular, &apos;Myriad Pro&apos;" font-size="12"><tspan x="0" y="0">L: ^1.0.0</tspan></text></g></svg>